<?xml version="1.0" encoding="UTF-8" standalone="no"?><!DOCTYPE svg PUBLIC "-//W3C//DTD SVG 1.1//EN" "http://www.w3.org/Graphics/SVG/1.1/DTD/svg11.dtd"><svg width="100%" height="100%" viewBox="0 0 3375 3375" version="1.1" xmlns="http://www.w3.org/2000/svg" xmlns:xlink="http://www.w3.org/1999/xlink" xml:space="preserve" xmlns:serif="http://www.serif.com/" style="fill-rule:evenodd;clip-rule:evenodd;stroke-linejoin:round;stroke-miterlimit:2;"><rect id="Prancheta1" x="0" y="0" width="3375" height="3375" style="fill:none;"/><g id="Prancheta11" serif:id="Prancheta1"><g><g><path d="M1459.349,2073.65l-189.019,-1024.282l-213.128,39.33l121.553,658.688l-554.368,-578.817l-240.999,44.473l189.019,1024.282l211.489,-39.028l-126.962,-687.997l592.565,602.075l209.85,-38.725Z" style="fill:#33004d;fill-rule:nonzero;"/><path d="M1559.947,2163.659l73.136,-794.735l-237.368,-21.844l-73.136,794.735l237.368,21.844Z" style="fill:none;fill-rule:nonzero;stroke:#fff;stroke-width:55.83px;"/><path d="M1559.947,2163.659l73.136,-794.735l-237.368,-21.844l-73.136,794.735l237.368,21.844Z" style="fill:#33004d;fill-rule:nonzero;"/><path d="M2130.525,1843.679c4.467,89.746 -55.712,147.956 -141.419,160.415c-85.707,12.46 -173.957,-63.4 -199.938,-242.119c-25.981,-178.719 41.143,-248.172 133.572,-261.609c82.346,-11.971 151.809,29.097 175.957,112.571l220.148,-32.004c-41.611,-191.796 -205.542,-292.471 -420.649,-261.2c-231.912,33.715 -367.823,184.801 -325.087,478.768c42.736,293.967 218.955,420.144 444.145,387.407c199.982,-29.073 337.574,-180.404 333.42,-374.235l-220.148,32.004Z" style="fill:none;fill-rule:nonzero;stroke:#fff;stroke-width:74.58px;"/><path d="M2130.525,1843.679c4.467,89.746 -55.712,147.956 -141.419,160.415c-85.707,12.46 -173.957,-63.4 -199.938,-242.119c-25.981,-178.719 41.143,-248.172 133.572,-261.609c82.346,-11.971 151.809,29.097 175.957,112.571l220.148,-32.004c-41.611,-191.796 -205.542,-292.471 -420.649,-261.2c-231.912,33.715 -367.823,184.801 -325.087,478.768c42.736,293.967 218.955,420.144 444.145,387.407c199.982,-29.073 337.574,-180.404 333.42,-374.235l-220.148,32.004Z" style="fill:#33004d;fill-rule:nonzero;"/><path d="M2522.045,2005.164c-142.547,-9.053 -209.021,-103.425 -197.617,-283.003c11.404,-179.578 89.168,-262.988 231.715,-253.935c142.547,9.053 209.135,101.629 197.731,281.207c-11.404,179.578 -89.282,264.783 -231.829,255.731Zm-12.431,195.74c276.072,17.532 462.845,-156.318 480.636,-436.459c17.905,-281.937 -143.685,-476.107 -421.562,-493.754c-281.486,-17.876 -468.258,155.974 -486.049,436.116c-17.448,274.754 140.076,475.878 426.975,494.098Z" style="fill:none;fill-rule:nonzero;stroke:#fff;stroke-width:93.75px;"/><path d="M2522.045,2005.164c-142.547,-9.053 -209.021,-103.425 -197.617,-283.003c11.404,-179.578 89.168,-262.988 231.715,-253.935c142.547,9.053 209.135,101.629 197.731,281.207c-11.404,179.578 -89.282,264.783 -231.829,255.731Zm-12.431,195.74c276.072,17.532 462.845,-156.318 480.636,-436.459c17.905,-281.937 -143.685,-476.107 -421.562,-493.754c-281.486,-17.876 -468.258,155.974 -486.049,436.116c-17.448,274.754 140.076,475.878 426.975,494.098Z" style="fill:#33004d;fill-rule:nonzero;"/></g><circle cx="1541.275" cy="1158.331" r="109.184" style="fill:#33004d;"/><path d="M2557.775,1588.587l33.522,82.789l68.523,57.292l-82.789,33.522l-57.292,68.523l-33.522,-82.789l-68.523,-57.292l82.789,-33.522l57.292,-68.523Z" style="fill:#33004d;"/></g></g></svg>